<svg width="24" height="25" viewBox="0 0 24 25" fill="none" xmlns="http://www.w3.org/2000/svg">
<path d="M13.025 12.5C13.025 14.985 11.005 17 8.512 17C7.92026 17.0008 7.33417 16.885 6.78717 16.6593C6.24018 16.4336 5.743 16.1023 5.32402 15.6845C4.90504 15.2666 4.57247 14.7703 4.34529 14.2239C4.11812 13.6775 4.00079 13.0917 4 12.5C4 10.014 6.02 8.00001 8.512 8.00001C9.10382 7.99909 9.69003 8.11476 10.2371 8.34042C10.7842 8.56608 11.2815 8.89731 11.7006 9.31518C12.1197 9.73306 12.4524 10.2294 12.6796 10.7759C12.9068 11.3223 13.0242 11.9082 13.025 12.5ZM17.975 12.5C17.975 14.84 16.965 16.736 15.719 16.736C14.473 16.736 13.463 14.839 13.463 12.5C13.463 10.16 14.473 8.26401 15.719 8.26401C16.965 8.26401 17.975 10.161 17.975 12.5ZM20 12.5C20 14.596 19.645 16.295 19.206 16.295C18.768 16.295 18.413 14.595 18.413 12.5C18.413 10.404 18.768 8.70501 19.207 8.70501C19.645 8.70501 20 10.404 20 12.5Z" fill="white"/>
</svg>
